<?xml version="1.0" encoding="utf-8"?>
<!-- Generator: Adobe Illustrator 23.0.5, SVG Export Plug-In . SVG Version: 6.00 Build 0)  -->
<svg version="1.1" id="Capa_1" xmlns="http://www.w3.org/2000/svg" xmlns:xlink="http://www.w3.org/1999/xlink" x="0px" y="0px"
	 viewBox="0 0 24 20" style="enable-background:new 0 0 24 20;" xml:space="preserve">
<style type="text/css">
	.st0{fill-rule:evenodd;clip-rule:evenodd;fill:#FFFFFF;}
</style>
<polygon class="st0" points="22.4,4.6 22.4,3 20.8,3 20.8,1.5 19.6,1.5 19.6,0 14.8,0 14.8,1.5 12.9,1.5 12.9,3 11.3,3 11.3,1.5 
	9.9,1.5 9.9,0 4.9,0 4.9,1.5 3.2,1.5 3.2,3 1.6,3 1.6,4.6 0,4.6 0,7.7 1.6,7.7 1.6,10.7 3.2,10.7 3.2,12.3 4.9,12.3 4.9,13.8 
	6.4,13.8 6.4,15.7 8,15.7 8,16.9 9.8,16.9 9.8,18.5 11.2,18.5 11.2,20 12.8,20 12.8,18.5 14.7,18.5 14.7,16.9 16,16.9 16,15.7 
	17.6,15.7 17.6,13.8 19.6,13.8 19.6,12.3 20.8,12.3 20.8,10.7 22.4,10.7 22.4,7.7 24,7.7 24,4.6 "/>
</svg>
